<?xml version="1.0" encoding="utf-8"?>
<!-- Generator: Adobe Illustrator 22.0.1, SVG Export Plug-In . SVG Version: 6.00 Build 0)  -->
<svg xmlns="http://www.w3.org/2000/svg" xmlns:xlink="http://www.w3.org/1999/xlink" version="1.1" x="0px" y="0px" viewBox="0 0 256 256" style="enable-background:new 0 0 256 256;" xml:space="preserve" width="512" height="512">
<style type="text/css">
	.st0{display:none;}
	.st1{display:inline;}
	.st2{fill:none;stroke:#6B1D1D;stroke-width:0.5;stroke-miterlimit:10;}
	.st3{fill:#3A312A;}
	.st4{fill:#F16C7A;}
	.st5{fill:#D7E057;}
	.st6{fill:#87796F;}
	.st7{fill:#CE4E61;}
	.st8{fill-rule:evenodd;clip-rule:evenodd;fill:#D7E057;}
	.st9{fill-rule:evenodd;clip-rule:evenodd;fill:#FCE8CB;}
	.st10{fill:#B9BC39;}
	.st11{fill:#8AC6DD;}
	.st12{fill:#FCE8CB;}
	.st13{fill:#CCAE8B;}
	.st14{fill:#6B5B51;}
	.st15{fill:#68A8BC;}
	.st16{fill:#F5978A;}
	.st17{fill-rule:evenodd;clip-rule:evenodd;fill:#F16C7A;}
	.st18{fill-rule:evenodd;clip-rule:evenodd;fill:#8AC6DD;}
</style>
<g id="Layer_1" class="st0">
	<g class="st1">
		<g>
			<line class="st2" x1="0" y1="4.829" x2="256" y2="4.829"/>
			<line class="st2" x1="0" y1="16.56" x2="256" y2="16.56"/>
			<line class="st2" x1="0" y1="28.29" x2="256" y2="28.29"/>
			<line class="st2" x1="0" y1="40.021" x2="256" y2="40.021"/>
			<line class="st2" x1="0" y1="51.751" x2="256" y2="51.751"/>
			<line class="st2" x1="0" y1="63.482" x2="256" y2="63.482"/>
			<line class="st2" x1="0" y1="75.213" x2="256" y2="75.213"/>
			<line class="st2" x1="0" y1="86.943" x2="256" y2="86.943"/>
			<line class="st2" x1="0" y1="98.674" x2="256" y2="98.674"/>
			<line class="st2" x1="0" y1="110.404" x2="256" y2="110.404"/>
			<line class="st2" x1="0" y1="122.135" x2="256" y2="122.135"/>
			<line class="st2" x1="0" y1="133.865" x2="256" y2="133.865"/>
			<line class="st2" x1="0" y1="145.596" x2="256" y2="145.596"/>
			<line class="st2" x1="0" y1="157.326" x2="256" y2="157.326"/>
			<line class="st2" x1="0" y1="169.057" x2="256" y2="169.057"/>
			<line class="st2" x1="0" y1="180.788" x2="256" y2="180.788"/>
			<line class="st2" x1="0" y1="192.518" x2="256" y2="192.518"/>
			<line class="st2" x1="0" y1="204.249" x2="256" y2="204.249"/>
			<line class="st2" x1="0" y1="215.979" x2="256" y2="215.979"/>
			<line class="st2" x1="0" y1="227.71" x2="256" y2="227.71"/>
			<line class="st2" x1="0" y1="239.44" x2="256" y2="239.44"/>
			<line class="st2" x1="0" y1="251.171" x2="256" y2="251.171"/>
		</g>
		<g>
			<line class="st2" x1="251.171" y1="0" x2="251.171" y2="256"/>
			<line class="st2" x1="239.44" y1="0" x2="239.44" y2="256"/>
			<line class="st2" x1="227.71" y1="0" x2="227.71" y2="256"/>
			<line class="st2" x1="215.979" y1="0" x2="215.979" y2="256"/>
			<line class="st2" x1="204.249" y1="0" x2="204.249" y2="256"/>
			<line class="st2" x1="192.518" y1="0" x2="192.518" y2="256"/>
			<line class="st2" x1="180.788" y1="0" x2="180.788" y2="256"/>
			<line class="st2" x1="169.057" y1="0" x2="169.057" y2="256"/>
			<line class="st2" x1="157.326" y1="0" x2="157.326" y2="256"/>
			<line class="st2" x1="145.596" y1="0" x2="145.596" y2="256"/>
			<line class="st2" x1="133.865" y1="0" x2="133.865" y2="256"/>
			<line class="st2" x1="122.135" y1="0" x2="122.135" y2="256"/>
			<line class="st2" x1="110.404" y1="0" x2="110.404" y2="256"/>
			<line class="st2" x1="98.674" y1="0" x2="98.674" y2="256"/>
			<line class="st2" x1="86.943" y1="0" x2="86.943" y2="256"/>
			<line class="st2" x1="75.212" y1="0" x2="75.212" y2="256"/>
			<line class="st2" x1="63.482" y1="0" x2="63.482" y2="256"/>
			<line class="st2" x1="51.751" y1="0" x2="51.751" y2="256"/>
			<line class="st2" x1="40.021" y1="0" x2="40.021" y2="256"/>
			<line class="st2" x1="28.29" y1="0" x2="28.29" y2="256"/>
			<line class="st2" x1="16.56" y1="0" x2="16.56" y2="256"/>
			<line class="st2" x1="4.829" y1="0" x2="4.829" y2="256"/>
		</g>
	</g>
</g>
<g id="Layer_2">
	<g>
		<g>
			<g>
				<path class="st11" d="M215.057,68.07H40.943c-7.773,0-14.075,6.302-14.075,14.075v89.156c0,7.773,6.301,14.075,14.075,14.075      h174.113c7.773,0,14.075-6.302,14.075-14.075V82.145C229.131,74.372,222.83,68.07,215.057,68.07z"/>
			</g>
		</g>
		<g>
			<g>
				<path class="st3" d="M215.057,66.57h-95.346c-0.829,0-1.5,0.671-1.5,1.5s0.671,1.5,1.5,1.5h95.346      c6.934,0,12.574,5.641,12.574,12.575v89.156c0,6.934-5.641,12.575-12.574,12.575H40.943c-6.934,0-12.575-5.641-12.575-12.575      V82.145c0-6.934,5.641-12.575,12.575-12.575h64.678c0.829,0,1.5-0.671,1.5-1.5s-0.671-1.5-1.5-1.5H40.943      c-8.588,0-15.575,6.987-15.575,15.575v89.156c0,8.588,6.987,15.575,15.575,15.575h174.113c8.588,0,15.574-6.987,15.574-15.575      V82.145C230.631,73.557,223.645,66.57,215.057,66.57z"/>
			</g>
		</g>
		<g>
			<g>
				<path class="st4" d="M231.501,185.376H24.499c-4.385,0-7.94,3.555-7.94,7.94s3.555,7.94,7.94,7.94h207.001      c4.385,0,7.94-3.555,7.94-7.94S235.885,185.376,231.501,185.376z"/>
			</g>
		</g>
		<g>
			<g>
				<path class="st3" d="M231.501,183.876H24.499c-5.205,0-9.44,4.234-9.44,9.439c0,5.205,4.235,9.439,9.44,9.439h207.002      c5.205,0,9.439-4.234,9.439-9.439C240.94,188.11,236.706,183.876,231.501,183.876z M231.501,199.755H24.499      c-3.551,0-6.44-2.889-6.44-6.439c0-3.551,2.889-6.439,6.44-6.439h207.002c3.551,0,6.439,2.889,6.439,6.439      C237.94,196.866,235.052,199.755,231.501,199.755z"/>
			</g>
		</g>
		<g>
			<g>
				<rect x="42.815" y="201.255" class="st6" width="170.369" height="11.833"/>
			</g>
		</g>
		<g>
			<g>
				<path class="st3" d="M213.185,199.755H42.815c-0.829,0-1.5,0.671-1.5,1.5v11.833c0,0.829,0.671,1.5,1.5,1.5h170.369      c0.828,0,1.5-0.671,1.5-1.5v-11.833C214.685,200.426,214.013,199.755,213.185,199.755z M211.685,211.588H44.315v-8.833h167.369      V211.588z"/>
			</g>
		</g>
		<g>
			<g>
				<circle class="st6" cx="43.809" cy="218.621" r="17.367"/>
			</g>
		</g>
		<g>
			<g>
				<path class="st3" d="M43.81,199.755c-10.403,0-18.867,8.463-18.867,18.867c0,10.403,8.463,18.867,18.867,18.867      c10.403,0,18.866-8.463,18.866-18.867C62.676,208.218,54.212,199.755,43.81,199.755z M43.81,234.488      c-8.749,0-15.867-7.118-15.867-15.867c0-8.749,7.118-15.867,15.867-15.867c8.749,0,15.866,7.118,15.866,15.867      C59.676,227.371,52.558,234.488,43.81,234.488z"/>
			</g>
		</g>
		<g>
			<g>
				<circle class="st12" cx="43.809" cy="218.621" r="8.586"/>
			</g>
		</g>
		<g>
			<g>
				<path class="st3" d="M43.81,208.536c-5.562,0-10.086,4.525-10.086,10.086c0,5.561,4.524,10.085,10.086,10.085      c5.561,0,10.085-4.524,10.085-10.085C53.895,213.06,49.371,208.536,43.81,208.536z M43.81,225.707      c-3.907,0-7.086-3.179-7.086-7.085c0-3.907,3.179-7.086,7.086-7.086c3.907,0,7.085,3.179,7.085,7.086      C50.895,222.528,47.716,225.707,43.81,225.707z"/>
			</g>
		</g>
		<g>
			<g>
				
					<ellipse transform="matrix(0.9925 -0.1222 0.1222 0.9925 -26.0499 12.4325)" class="st6" cx="88.347" cy="218.621" rx="17.367" ry="17.367"/>
			</g>
		</g>
		<g>
			<g>
				<path class="st3" d="M88.347,199.755c-10.403,0-18.867,8.463-18.867,18.867c0,10.403,8.463,18.867,18.867,18.867      s18.867-8.463,18.867-18.867C107.213,208.218,98.75,199.755,88.347,199.755z M88.347,234.488      c-8.749,0-15.867-7.118-15.867-15.867c0-8.749,7.118-15.867,15.867-15.867s15.867,7.118,15.867,15.867      C104.213,227.371,97.096,234.488,88.347,234.488z"/>
			</g>
		</g>
		<g>
			<g>
				
					<ellipse transform="matrix(0.1602 -0.9871 0.9871 0.1602 -141.6034 270.8078)" class="st12" cx="88.347" cy="218.621" rx="8.586" ry="8.586"/>
			</g>
		</g>
		<g>
			<g>
				<path class="st3" d="M88.347,208.536c-5.561,0-10.086,4.525-10.086,10.086c0,5.561,4.524,10.085,10.086,10.085      c5.562,0,10.086-4.524,10.086-10.085C98.433,213.06,93.908,208.536,88.347,208.536z M88.347,225.707      c-3.907,0-7.086-3.179-7.086-7.085c0-3.907,3.179-7.086,7.086-7.086c3.907,0,7.086,3.179,7.086,7.086      C95.433,222.528,92.254,225.707,88.347,225.707z"/>
			</g>
		</g>
		<g>
			<g>
				<circle class="st6" cx="167.653" cy="218.621" r="17.367"/>
			</g>
		</g>
		<g>
			<g>
				<path class="st3" d="M167.653,199.755c-10.403,0-18.867,8.463-18.867,18.867c0,10.403,8.464,18.867,18.867,18.867      s18.866-8.463,18.866-18.867C186.52,208.218,178.057,199.755,167.653,199.755z M167.653,234.488      c-8.749,0-15.867-7.118-15.867-15.867c0-8.749,7.118-15.867,15.867-15.867s15.866,7.118,15.866,15.867      C183.52,227.371,176.402,234.488,167.653,234.488z"/>
			</g>
		</g>
		<g>
			<g>
				<circle class="st12" cx="167.653" cy="218.621" r="8.586"/>
			</g>
		</g>
		<g>
			<g>
				<path class="st3" d="M167.653,208.536c-5.562,0-10.086,4.525-10.086,10.086c0,5.561,4.524,10.085,10.086,10.085      s10.086-4.524,10.086-10.085C177.739,213.06,173.215,208.536,167.653,208.536z M167.653,225.707      c-3.907,0-7.086-3.179-7.086-7.085c0-3.907,3.179-7.086,7.086-7.086c3.907,0,7.086,3.179,7.086,7.086      C174.739,222.528,171.56,225.707,167.653,225.707z"/>
			</g>
		</g>
		<g>
			<g>
				<path class="st6" d="M212.191,201.255c-9.591,0-17.367,7.775-17.367,17.367s7.775,17.367,17.367,17.367      s17.366-7.775,17.366-17.367S221.782,201.255,212.191,201.255z"/>
			</g>
		</g>
		<g>
			<g>
				<path class="st3" d="M212.19,199.755c-10.403,0-18.866,8.463-18.866,18.867c0,10.403,8.463,18.867,18.866,18.867      s18.867-8.463,18.867-18.867C231.058,208.218,222.594,199.755,212.19,199.755z M212.19,234.488      c-8.749,0-15.866-7.118-15.866-15.867c0-8.749,7.117-15.867,15.866-15.867s15.867,7.118,15.867,15.867      C228.058,227.371,220.939,234.488,212.19,234.488z"/>
			</g>
		</g>
		<g>
			<g>
				<circle class="st12" cx="212.191" cy="218.621" r="8.586"/>
			</g>
		</g>
		<g>
			<g>
				<path class="st3" d="M212.19,208.536c-5.562,0-10.086,4.525-10.086,10.086c0,5.561,4.524,10.085,10.086,10.085      s10.086-4.524,10.086-10.085C222.276,213.06,217.752,208.536,212.19,208.536z M212.19,225.707c-3.907,0-7.086-3.179-7.086-7.085      c0-3.907,3.179-7.086,7.086-7.086s7.086,3.179,7.086,7.086C219.276,222.528,216.098,225.707,212.19,225.707z"/>
			</g>
		</g>
		<g>
			<g>
				<path class="st5" d="M47.865,29.689c-0.974,11.564-13.024,13.389-13.024,13.389c10.347,0.487,12.925,14.059,12.925,14.059      c0.221-9.677,13.321-14.202,13.321-14.202C51.274,42.348,47.865,29.689,47.865,29.689z"/>
			</g>
		</g>
		<g>
			<g>
				<path class="st3" d="M61.177,41.438c-8.605-0.515-11.832-12.024-11.864-12.141c-0.191-0.703-0.859-1.162-1.583-1.102      c-0.725,0.066-1.298,0.642-1.359,1.367c-0.86,10.215-11.314,11.964-11.755,12.033c-0.763,0.115-1.313,0.79-1.273,1.56      c0.04,0.77,0.657,1.384,1.428,1.421c9.028,0.425,11.498,12.718,11.523,12.842c0.137,0.711,0.759,1.217,1.472,1.217      c0.042,0,0.084-0.001,0.126-0.005c0.764-0.064,1.357-0.693,1.375-1.459c0.195-8.509,12.192-12.777,12.313-12.819      c0.675-0.235,1.092-0.914,0.994-1.622C62.475,42.022,61.891,41.481,61.177,41.438z M47.611,51.784      c-1.356-3.13-3.709-6.907-7.587-8.876c2.931-1.404,6.409-3.913,8.202-8.273c1.551,3.071,4.199,6.88,8.334,8.723      C53.553,44.997,49.638,47.762,47.611,51.784z"/>
			</g>
		</g>
		<g>
			<g>
				<path class="st5" d="M26.167,46.669c-0.689,8.179-9.212,9.471-9.212,9.471c7.318,0.344,9.142,9.944,9.142,9.944      c0.156-6.844,9.422-10.045,9.422-10.045C28.577,55.624,26.167,46.669,26.167,46.669z"/>
			</g>
		</g>
		<g>
			<g>
				<path class="st3" d="M35.608,54.542c-5.766-0.345-7.972-8.185-7.994-8.265c-0.19-0.702-0.854-1.168-1.582-1.102      c-0.726,0.065-1.299,0.642-1.36,1.368c-0.579,6.871-7.646,8.067-7.942,8.114c-0.763,0.115-1.313,0.79-1.273,1.561      c0.04,0.77,0.657,1.384,1.428,1.421c6.035,0.284,7.723,8.644,7.739,8.726c0.135,0.713,0.759,1.22,1.473,1.22      c0.041,0,0.082-0.002,0.124-0.005c0.765-0.063,1.358-0.694,1.376-1.461c0.13-5.71,8.331-8.634,8.412-8.662      c0.676-0.234,1.094-0.913,0.996-1.622C36.907,55.126,36.323,54.585,35.608,54.542z M26.024,61.336      c-0.924-1.885-2.34-3.947-4.447-5.28c1.855-1.041,3.697-2.63,4.871-4.916c1.057,1.874,2.654,3.954,4.941,5.224      C29.539,57.465,27.4,59.104,26.024,61.336z"/>
			</g>
		</g>
		<g>
			<g>
				<path class="st5" d="M26.167,20.012c-0.689,8.179-9.212,9.471-9.212,9.471c7.318,0.344,9.142,9.944,9.142,9.944      c0.156-6.845,9.422-10.045,9.422-10.045C28.577,28.966,26.167,20.012,26.167,20.012z"/>
			</g>
		</g>
		<g>
			<g>
				<path class="st3" d="M35.608,27.884c-5.766-0.345-7.972-8.186-7.994-8.265c-0.19-0.702-0.854-1.168-1.582-1.102      c-0.726,0.065-1.299,0.642-1.36,1.368c-0.579,6.871-7.646,8.067-7.942,8.114c-0.763,0.115-1.313,0.79-1.273,1.561      c0.04,0.77,0.657,1.384,1.427,1.421c6.035,0.284,7.724,8.644,7.739,8.726c0.135,0.712,0.759,1.22,1.472,1.22      c0.042,0,0.083-0.002,0.125-0.005c0.765-0.064,1.358-0.694,1.376-1.461c0.13-5.709,8.331-8.634,8.412-8.662      c0.676-0.234,1.094-0.913,0.996-1.622C36.907,28.468,36.323,27.927,35.608,27.884z M26.024,34.679      c-0.924-1.886-2.34-3.947-4.447-5.28c1.855-1.042,3.697-2.63,4.871-4.917c1.057,1.873,2.654,3.954,4.941,5.224      C29.539,30.807,27.4,32.446,26.024,34.679z"/>
			</g>
		</g>
		<g>
			<g>
				<path class="st15" d="M215.06,69.568h-11.34c6.94,0,12.58,5.64,12.58,12.58v89.15c0,6.94-5.64,12.58-12.58,12.58h11.34      c6.93,0,12.57-5.64,12.57-12.58v-89.15C227.63,75.208,221.99,69.568,215.06,69.568z"/>
			</g>
		</g>
		<g>
			<g>
				<path class="st7" d="M231.5,186.878h-11.33c3.55,0,6.44,2.89,6.44,6.44c0,3.55-2.89,6.44-6.44,6.44h11.33      c3.55,0,6.44-2.89,6.44-6.44C237.94,189.768,235.05,186.878,231.5,186.878z"/>
			</g>
		</g>
		<g>
			<g>
				<path class="st6" d="M49.677,79.863c-3.704,0-6.707,3.003-6.707,6.707v31.935c0.01,0,0.02-0.001,0.03-0.001v13.837      c-0.01,0-0.02-0.001-0.03-0.002v34.6c0,3.704,3.003,6.707,6.707,6.707c3.704,0,6.707-3.003,6.707-6.707V86.57      C56.384,82.866,53.381,79.863,49.677,79.863z"/>
			</g>
		</g>
		<g>
			<g>
				<path class="st3" d="M49.677,78.363c-4.525,0-8.207,3.682-8.207,8.207v31.935c0,0.829,0.701,1.499,1.53,1.499      c0.829,0,1.485-0.671,1.485-1.5c0-0.071-0.005-0.141-0.015-0.21V86.57c0-2.871,2.336-5.207,5.207-5.207      c2.871,0,5.207,2.336,5.207,5.207v80.368c0,2.871-2.336,5.207-5.207,5.207c-2.871,0-5.207-2.336-5.207-5.207v-34.385      c0.008-0.059,0.013-0.118,0.015-0.178c0.019-0.815-0.63-1.496-1.443-1.535c-0.405-0.011-0.809,0.13-1.106,0.413      c-0.297,0.283-0.465,0.675-0.465,1.085v34.6c0,4.525,3.682,8.207,8.207,8.207c4.525,0,8.207-3.682,8.207-8.207V86.57      C57.884,82.044,54.203,78.363,49.677,78.363z"/>
			</g>
		</g>
		<g>
			<g>
				<path class="st6" d="M81.006,79.863c-3.704,0-6.707,3.003-6.707,6.707v80.368c0,3.704,3.003,6.707,6.707,6.707      c3.704,0,6.707-3.003,6.707-6.707V86.57C87.713,82.866,84.71,79.863,81.006,79.863z"/>
			</g>
		</g>
		<g>
			<g>
				<path class="st3" d="M81.006,78.363c-4.525,0-8.207,3.682-8.207,8.207v80.368c0,4.525,3.682,8.207,8.207,8.207      c4.525,0,8.207-3.682,8.207-8.207V86.57C89.213,82.044,85.532,78.363,81.006,78.363z M86.213,166.938      c0,2.871-2.336,5.207-5.207,5.207c-2.871,0-5.207-2.336-5.207-5.207V86.57c0-2.871,2.336-5.207,5.207-5.207      c2.871,0,5.207,2.336,5.207,5.207V166.938z"/>
			</g>
		</g>
		<g>
			<g>
				<path class="st6" d="M112.335,79.863c-3.704,0-6.707,3.003-6.707,6.707v80.368c0,3.704,3.003,6.707,6.707,6.707      c3.704,0,6.707-3.003,6.707-6.707V86.57C119.042,82.866,116.04,79.863,112.335,79.863z"/>
			</g>
		</g>
		<g>
			<g>
				<path class="st3" d="M112.335,78.363c-4.525,0-8.207,3.682-8.207,8.207v80.368c0,4.525,3.682,8.207,8.207,8.207      c4.525,0,8.207-3.682,8.207-8.207V86.57C120.542,82.044,116.861,78.363,112.335,78.363z M117.542,166.938      c0,2.871-2.336,5.207-5.207,5.207c-2.871,0-5.207-2.336-5.207-5.207V86.57c0-2.871,2.336-5.207,5.207-5.207      c2.871,0,5.207,2.336,5.207,5.207V166.938z"/>
			</g>
		</g>
		<g>
			<g>
				<path class="st6" d="M143.665,79.863c-3.704,0-6.707,3.003-6.707,6.707v80.368c0,3.704,3.003,6.707,6.707,6.707      c3.704,0,6.707-3.003,6.707-6.707V86.57C150.372,82.866,147.369,79.863,143.665,79.863z"/>
			</g>
		</g>
		<g>
			<g>
				<path class="st3" d="M143.665,78.363c-4.525,0-8.207,3.682-8.207,8.207v80.368c0,4.525,3.682,8.207,8.207,8.207      c4.525,0,8.207-3.682,8.207-8.207V86.57C151.872,82.044,148.19,78.363,143.665,78.363z M148.872,166.938      c0,2.871-2.336,5.207-5.207,5.207s-5.207-2.336-5.207-5.207V86.57c0-2.871,2.336-5.207,5.207-5.207s5.207,2.336,5.207,5.207      V166.938z"/>
			</g>
		</g>
		<g>
			<g>
				<path class="st6" d="M174.994,79.863c-3.704,0-6.707,3.003-6.707,6.707v80.368c0,3.704,3.003,6.707,6.707,6.707      c3.704,0,6.707-3.003,6.707-6.707V86.57C181.701,82.866,178.698,79.863,174.994,79.863z"/>
			</g>
		</g>
		<g>
			<g>
				<path class="st3" d="M174.994,78.363c-4.525,0-8.207,3.682-8.207,8.207v80.368c0,4.525,3.682,8.207,8.207,8.207      c4.525,0,8.207-3.682,8.207-8.207V86.57C183.201,82.044,179.52,78.363,174.994,78.363z M180.201,166.938      c0,2.871-2.336,5.207-5.207,5.207s-5.207-2.336-5.207-5.207V86.57c0-2.871,2.336-5.207,5.207-5.207s5.207,2.336,5.207,5.207      V166.938z"/>
			</g>
		</g>
		<g>
			<g>
				<path class="st6" d="M206.323,79.863c-3.704,0-6.707,3.003-6.707,6.707v80.368c0,3.704,3.003,6.707,6.707,6.707      s6.707-3.003,6.707-6.707V86.57C213.03,82.866,210.027,79.863,206.323,79.863z"/>
			</g>
		</g>
		<g>
			<g>
				<path class="st3" d="M206.323,78.363c-4.525,0-8.207,3.682-8.207,8.207v80.368c0,4.525,3.682,8.207,8.207,8.207      s8.207-3.682,8.207-8.207V86.57C214.53,82.044,210.849,78.363,206.323,78.363z M211.53,166.938c0,2.871-2.336,5.207-5.207,5.207      s-5.207-2.336-5.207-5.207V86.57c0-2.871,2.336-5.207,5.207-5.207s5.207,2.336,5.207,5.207V166.938z"/>
			</g>
		</g>
	</g>
</g>
</svg>
